<svg xmlns="http://www.w3.org/2000/svg" xmlns:xlink="http://www.w3.org/1999/xlink" width="108.248" height="96.683" viewBox="0 0 108.248 96.683">
  <defs>
    <clipPath id="clip-path">
      <rect id="Rectangle_140155" data-name="Rectangle 140155" width="108.248" height="96.683" fill="none"/>
    </clipPath>
  </defs>
  <g id="Group_45483" data-name="Group 45483" transform="translate(-202 -4231)">
    <circle id="Ellipse_49" data-name="Ellipse 49" cx="25" cy="25" r="25" transform="translate(257 4275)" fill="#1893d2" opacity="0.26"/>
    <g id="Group_45415" data-name="Group 45415" transform="translate(202 4231)">
      <g id="Group_45414" data-name="Group 45414" clip-path="url(#clip-path)">
        <path id="Path_63403" data-name="Path 63403" d="M125.418,128.071H115.33a2.026,2.026,0,0,1-1.946-1.454l-1.036-3.483a20.449,20.449,0,0,1-2.663-1.077l-3.246,1.716a2.016,2.016,0,0,1-2.4-.369l-7.011-7.132a2.032,2.032,0,0,1-.347-2.374l1.718-3.246c-.407-.83-.782-1.716-1.125-2.64l-3.56-1.06a2.028,2.028,0,0,1-1.452-1.945V94.92a2.028,2.028,0,0,1,1.5-1.958l3.5-.945a26.015,26.015,0,0,1,1.14-2.742l-1.718-3.246a2.032,2.032,0,0,1,.36-2.386l7.011-7.009a2.014,2.014,0,0,1,2.384-.356l3.246,1.716c.833-.407,1.721-.784,2.651-1.131l1.053-3.445a2.032,2.032,0,0,1,1.941-1.437h10.088a2.031,2.031,0,0,1,1.941,1.437l1.053,3.445c.93.347,1.816.725,2.651,1.131l3.246-1.716a2.019,2.019,0,0,1,2.371.343l7.134,7.009a2.033,2.033,0,0,1,.35,2.441L142.358,89.3a26.519,26.519,0,0,1,1.125,2.713l3.5.945a2.027,2.027,0,0,1,1.5,1.958v10.09a2.028,2.028,0,0,1-1.451,1.945l-3.56,1.06c-.341.915-.712,1.788-1.112,2.61l1.805,3.233a2.035,2.035,0,0,1-.337,2.428l-7.134,7.132a2.021,2.021,0,0,1-2.384.356l-3.246-1.716a20.708,20.708,0,0,1-2.663,1.077l-1.036,3.483a2.025,2.025,0,0,1-1.945,1.454m-8.573-4.06H123.9l.922-3.1a2.024,2.024,0,0,1,1.453-1.394,16.6,16.6,0,0,0,3.827-1.534,2.053,2.053,0,0,1,1.92-.008l2.858,1.509,4.988-4.988-1.587-2.839a2.03,2.03,0,0,1-.013-1.962,24.766,24.766,0,0,0,1.706-3.979,2.025,2.025,0,0,1,1.346-1.3l3.1-.92V96.475l-3.051-.826a2.025,2.025,0,0,1-1.409-1.36,22.192,22.192,0,0,0-1.688-4.056,2.024,2.024,0,0,1,.011-1.962l1.581-2.831-4.971-4.881-2.869,1.517a2.053,2.053,0,0,1-1.92-.008,24.653,24.653,0,0,0-3.977-1.7,2.026,2.026,0,0,1-1.3-1.331l-.913-2.992h-7.084l-.913,2.992a2.025,2.025,0,0,1-1.3,1.331,24.55,24.55,0,0,0-3.975,1.7,2.045,2.045,0,0,1-1.922.013l-2.858-1.509-4.89,4.89,1.513,2.856a2.031,2.031,0,0,1-.015,1.924,21.867,21.867,0,0,0-1.684,4.051,2.035,2.035,0,0,1-1.412,1.36l-3.051.826V103.5l3.1.92a2.025,2.025,0,0,1,1.347,1.306,24.532,24.532,0,0,0,1.7,3.975,2.027,2.027,0,0,1,.013,1.92l-1.519,2.869,4.91,5,2.845-1.5a2.045,2.045,0,0,1,1.922.013,16.586,16.586,0,0,0,3.825,1.53,2.026,2.026,0,0,1,1.454,1.394Z" transform="translate(-40.234 -31.388)" fill="#213b4f"/>
        <path id="Path_63404" data-name="Path 63404" d="M129.6,125.395a16.239,16.239,0,0,1,0-32.478,15.1,15.1,0,0,1,7.518,1.864,2.03,2.03,0,0,1-2,3.534,11.091,11.091,0,0,0-5.522-1.339,11.988,11.988,0,0,0-12.116,12.116,12.117,12.117,0,1,0,24.234,0,11.42,11.42,0,0,0-1.339-5.522,2.03,2.03,0,0,1,3.539-1.992,15.557,15.557,0,0,1,1.86,7.513,16.259,16.259,0,0,1-16.177,16.3" transform="translate(-49.46 -40.518)" fill="#213b4f"/>
        <path id="Path_63405" data-name="Path 63405" d="M51.234,85.491H2.03A2.029,2.029,0,0,1,0,83.462V2.03A2.029,2.029,0,0,1,2.03,0H106.218a2.029,2.029,0,0,1,2.03,2.03V47.42a2.03,2.03,0,0,1-4.06,0V4.06H4.06V81.431H51.234a2.03,2.03,0,0,1,0,4.06" fill="#213b4f"/>
        <path id="Path_63406" data-name="Path 63406" d="M76.194,112a2.028,2.028,0,0,1-2.03-2.03V89.063a2.03,2.03,0,1,1,4.059,0v20.909a2.028,2.028,0,0,1-2.03,2.03" transform="translate(-32.34 -37.952)" fill="#213b4f"/>
        <path id="Path_63407" data-name="Path 63407" d="M94.3,78.492a2.028,2.028,0,0,1-2.03-2.03V66.377a2.03,2.03,0,0,1,4.059,0V76.463a2.028,2.028,0,0,1-2.03,2.03" transform="translate(-40.234 -28.059)" fill="#213b4f"/>
        <path id="Path_63408" data-name="Path 63408" d="M112.617,62.815a2.028,2.028,0,0,1-2.03-2.03V50.454a2.03,2.03,0,1,1,4.059,0V60.785a2.028,2.028,0,0,1-2.03,2.03" transform="translate(-48.223 -21.116)" fill="#213b4f"/>
        <path id="Path_63409" data-name="Path 63409" d="M130.941,61.147a2.028,2.028,0,0,1-2.03-2.03V54.812a2.03,2.03,0,1,1,4.06,0v4.305a2.029,2.029,0,0,1-2.03,2.03" transform="translate(-56.213 -23.016)" fill="#213b4f"/>
        <path id="Path_63410" data-name="Path 63410" d="M149.261,55.13a2.029,2.029,0,0,1-2.03-2.03V41.294a2.03,2.03,0,0,1,4.06,0V53.1a2.029,2.029,0,0,1-2.03,2.03" transform="translate(-64.202 -17.122)" fill="#213b4f"/>
        <path id="Path_63411" data-name="Path 63411" d="M167.368,50.175a2.028,2.028,0,0,1-2.03-2.03V22.312a2.03,2.03,0,0,1,4.06,0V48.145a2.029,2.029,0,0,1-2.03,2.03" transform="translate(-72.098 -8.844)" fill="#213b4f"/>
        <path id="Path_63412" data-name="Path 63412" d="M57.87,110.383a2.028,2.028,0,0,1-2.03-2.03v-23a2.03,2.03,0,1,1,4.059,0v23a2.028,2.028,0,0,1-2.03,2.03" transform="translate(-24.35 -36.333)" fill="#213b4f"/>
        <path id="Path_63413" data-name="Path 63413" d="M39.55,119.135a2.028,2.028,0,0,1-2.03-2.03V105.422a2.03,2.03,0,0,1,4.059,0v11.684a2.028,2.028,0,0,1-2.03,2.03" transform="translate(-16.361 -45.085)" fill="#213b4f"/>
        <path id="Path_63414" data-name="Path 63414" d="M21.225,117.136a2.029,2.029,0,0,1-2.03-2.03V100.838a2.03,2.03,0,0,1,4.06,0v14.269a2.028,2.028,0,0,1-2.03,2.03" transform="translate(-8.37 -43.086)" fill="#213b4f"/>
        <path id="Path_63415" data-name="Path 63415" d="M41.891,32.953H21.226a2.029,2.029,0,0,1-2.03-2.03V22.312a2.029,2.029,0,0,1,2.03-2.03H41.891a2.029,2.029,0,0,1,2.03,2.03v8.611a2.029,2.029,0,0,1-2.03,2.03m-18.635-4.06H39.861V24.341H23.256Z" transform="translate(-8.371 -8.844)" fill="#213b4f"/>
      </g>
    </g>
  </g>
</svg>
