<svg xmlns="http://www.w3.org/2000/svg" width="126" height="98" viewBox="0 0 126 98">
  <g id="Group_45486" data-name="Group 45486" transform="translate(-1242 -4236)">
    <g id="Group_45410" data-name="Group 45410" transform="translate(1241.354 4235.355)">
      <g id="Group_45411" data-name="Group 45411" transform="translate(2.645 2.645)">
        <path id="Path_63397" data-name="Path 63397" d="M69.889,197.5l-3.556,3.556H48.556L45,197.5H5v6.222a4.444,4.444,0,0,0,4.444,4.444h95.111A4.444,4.444,0,0,0,109,203.722V197.5Z" transform="translate(-5 -129.055)" fill="none" stroke="#000" stroke-width="4"/>
        <path id="Path_63398" data-name="Path 63398" d="M114.778,66.334V9.444A4.444,4.444,0,0,0,110.334,5H29.444A4.444,4.444,0,0,0,25,9.444V66.334" transform="translate(-17.889 -5)" fill="none" stroke="#000" stroke-width="4"/>
        <circle id="Ellipse_47" data-name="Ellipse 47" cx="1.697" cy="1.697" r="1.697" transform="translate(39.901 52.297)" fill="none" stroke="#000" stroke-width="4"/>
        <path id="Path_63399" data-name="Path 63399" d="M120.761,72.864H86.893L80.139,39.752l-8.889.4" transform="translate(-47.695 -27.396)" fill="none" stroke="#000" stroke-width="4"/>
        <path id="Path_63400" data-name="Path 63400" d="M114.1,53.622h32.374a3.067,3.067,0,0,1,3.006,3.676l-2.395,11.823a3.067,3.067,0,0,1-3.006,2.458H112.739" transform="translate(-74.432 -36.334)" fill="none" stroke="#000" stroke-width="4"/>
        <circle id="Ellipse_48" data-name="Ellipse 48" cx="1.697" cy="1.697" r="1.697" transform="translate(67.686 52.297)" fill="none" stroke="#000" stroke-width="4"/>
      </g>
    </g>
    <circle id="Ellipse_52" data-name="Ellipse 52" cx="25.5" cy="25.5" r="25.5" transform="translate(1317 4283)" fill="#1893d2" opacity="0.26"/>
  </g>
</svg>
