<svg id="Group_45830" data-name="Group 45830" xmlns="http://www.w3.org/2000/svg" xmlns:xlink="http://www.w3.org/1999/xlink" width="99.364" height="96" viewBox="0 0 99.364 96">
  <defs>
    <clipPath id="clip-path">
      <rect id="Rectangle_140365" data-name="Rectangle 140365" width="99.364" height="96" fill="#fff"/>
    </clipPath>
  </defs>
  <g id="Group_45797" data-name="Group 45797" clip-path="url(#clip-path)">
    <path id="Path_64118" data-name="Path 64118" d="M219.37,121.735h-4.435c.014-26.906.472-26.979-1.11-26.979-5.395,0-6.69-.34-6.69,1.11v25.87h-2.872c.018-19.3.435-19.806-1.111-19.806-5.394,0-6.686-.34-6.686,1.11v18.7h-2.871c.022-12.576.392-13.27-1.112-13.27-5.514,0-6.7-.34-6.7,1.11v12.161h-3.231V91.746h-2.219v31.1c0,1.721.193,1.11,39.038,1.11ZM188,110.683h3.372v11.052H188Zm10.683-6.535h3.358v17.587h-3.358Zm10.67-7.174h3.361v24.76h-3.361Z" transform="translate(-130.362 -66.323)" fill="#fff"/>
    <path id="Path_64119" data-name="Path 64119" d="M99.335,1.231c0-1.771-.11-1.11-74.485-1.11-1.537,0-1.136.916-1.112,15.168a20.266,20.266,0,1,0-4.99,40.176H5.545a3.385,3.385,0,0,0-3.385,3.377V67.07a3.391,3.391,0,0,0,3.385,3.388h6.06c-1.066,1.613-.813,2.706-.813,7.829a4.912,4.912,0,0,0,.809,2.7c-1.214.011-2.69.027-4.522.027a4.921,4.921,0,0,0-4.92,4.909v5.141A4.946,4.946,0,0,0,7.1,96H85.277C86.2,96,99.9,79.633,99.092,80.682c.4-.514.242-.036.242-79.451M86.418,91.885c0-1.724-.033-4.162-.033-7.637A3.179,3.179,0,0,1,89.593,81.1h6.2Zm-31.006,1.8c1.067-1.7.76-2.912.76-7.732a4.749,4.749,0,0,0-.846-2.718c1.435,0,2.95,0,4.569,0a4.921,4.921,0,0,0,4.909-4.92V73.177a4.946,4.946,0,0,0-4.941-4.939H38.673c.338-.919.235-.419.235-9.4a3.381,3.381,0,0,0-3.375-3.377c-10.848,0-9.544.27-9.562-.647,20.087-5.405,20.082-33.685-.012-39.066V2.341H97.116V78.882H89.593a5.4,5.4,0,0,0-5.426,5.366c0,4.982-.1,7.862-.05,9.533-15.719,0-24.172-.132-28.7-.1m-48.311.1a2.724,2.724,0,0,1-2.723-2.722V85.918c0-3.67.186-2.51,46.929-2.674a2.716,2.716,0,0,1,2.647,2.707v5.131a2.7,2.7,0,0,1-2.69,2.7Zm5.91-20.634a2.7,2.7,0,0,1,2.7-2.69H59.864a2.724,2.724,0,0,1,2.722,2.72v5.131a2.7,2.7,0,0,1-2.69,2.7H15.73a2.724,2.724,0,0,1-2.719-2.722ZM4.378,67.07c0-8.33-.384-9.385,1.166-9.385,30.909,0,31.144-.5,31.144,1.158,0,8.33.384,9.4-1.156,9.4-31.117,0-31.155.485-31.155-1.169M38.846,35.29A18.116,18.116,0,0,1,20.534,53.336a18.05,18.05,0,1,1,0-36.1A18.1,18.1,0,0,1,38.846,35.29m-15.113,20c0,.277.191.179-1.38.179.465-.04.923-.109,1.38-.179" transform="translate(0 0)" fill="#fff"/>
    <path id="Path_64120" data-name="Path 64120" d="M59.988,97.823a3.148,3.148,0,1,1-3.207,3.147,1.111,1.111,0,0,0-1.109-1.109c-2.222,0-1.012,5.43,3.2,6.3-.012,1.431.042,2.306,1.116,2.306s1.135-.882,1.119-2.247C67.452,104.9,66.469,95.6,59.988,95.6a3.149,3.149,0,1,1,3.207-3.15,1.111,1.111,0,0,0,1.109,1.11c2.22,0,1.013-5.425-3.194-6.3,0-.364-.012-.757-.012-1.195a1.11,1.11,0,0,0-2.219,0c0,.421-.006.786-.008,1.134-6.346,1.322-5.365,10.618,1.118,10.618" transform="translate(-39.454 -61.424)" fill="#fff"/>
    <path id="Path_64121" data-name="Path 64121" d="M214.938,65.764c8.18-8.065,12.6-12.282,14.911-14.627-.045,3.747-.157,4.761,1.12,4.761a1.111,1.111,0,0,0,1.11-1.11c0-7.13.206-6.6-.319-7.166-.447-.453.584-.33-7.263-.33a1.111,1.111,0,0,0-1.11,1.11c0,1.32,1.377,1.184,4.789,1.126-2.387,2.288-6.669,6.645-14.8,14.656a1.11,1.11,0,0,0,1.559,1.58" transform="translate(-154.002 -34.177)" fill="#fff"/>
  </g>
</svg>
