<svg xmlns="http://www.w3.org/2000/svg" xmlns:xlink="http://www.w3.org/1999/xlink" width="84.671" height="103.5" viewBox="0 0 84.671 103.5">
  <defs>
    <clipPath id="clip-path">
      <rect id="Rectangle_140364" data-name="Rectangle 140364" width="84.671" height="103.5" fill="#fff"/>
    </clipPath>
  </defs>
  <g id="Group_45829" data-name="Group 45829" transform="translate(2 3.5)">
    <g id="Group_45795" data-name="Group 45795" transform="translate(-2 -3.5)" clip-path="url(#clip-path)">
      <path id="Path_64100" data-name="Path 64100" d="M349.443,353.528h-3.88a.6.6,0,0,1,0-1.194h3.88a.6.6,0,1,1,0,1.194" transform="translate(-276.33 -282.232)" fill="#fff"/>
      <path id="Path_64101" data-name="Path 64101" d="M355.313,347.658a.6.6,0,0,1-.6-.6v-3.88a.6.6,0,0,1,1.194,0v3.88a.6.6,0,0,1-.6.6" transform="translate(-284.14 -274.422)" fill="#fff"/>
      <path id="Path_64102" data-name="Path 64102" d="M409.112,220.5a.6.6,0,0,1-.422-.175l-2.744-2.744a.6.6,0,0,1,.844-.844l2.744,2.743a.6.6,0,0,1-.422,1.019" transform="translate(-325.038 -173.473)" fill="#fff"/>
      <path id="Path_64103" data-name="Path 64103" d="M406.369,220.5a.6.6,0,0,1-.422-1.019l2.744-2.743a.6.6,0,0,1,.844.844l-2.744,2.744a.6.6,0,0,1-.422.175" transform="translate(-325.038 -173.473)" fill="#fff"/>
      <path id="Path_64104" data-name="Path 64104" d="M232.552,3.938a.6.6,0,0,1-.422-.175l-2.744-2.744a.6.6,0,0,1,.844-.844l2.744,2.743a.6.6,0,0,1-.422,1.019" transform="translate(-183.607 0)" fill="#fff"/>
      <path id="Path_64105" data-name="Path 64105" d="M229.808,3.938a.6.6,0,0,1-.422-1.019L232.129.175a.6.6,0,0,1,.844.844L230.23,3.763a.6.6,0,0,1-.422.175" transform="translate(-183.606 0)" fill="#fff"/>
      <path id="Path_64106" data-name="Path 64106" d="M54.168,349.376a.6.6,0,0,1-.422-.175L51,346.458a.6.6,0,0,1,.844-.844l2.744,2.744a.6.6,0,0,1-.422,1.019" transform="translate(-40.715 -276.709)" fill="#fff"/>
      <path id="Path_64107" data-name="Path 64107" d="M51.425,349.376A.6.6,0,0,1,51,348.357l2.744-2.744a.6.6,0,0,1,.844.844L51.847,349.2a.6.6,0,0,1-.422.175" transform="translate(-40.715 -276.709)" fill="#fff"/>
      <path id="Path_64108" data-name="Path 64108" d="M2.015,247.363a2.015,2.015,0,1,1,2.015-2.014,2.017,2.017,0,0,1-2.015,2.014m0-2.835a.821.821,0,1,0,.821.821.822.822,0,0,0-.821-.821" transform="translate(0 -194.919)" fill="#fff"/>
      <path id="Path_64109" data-name="Path 64109" d="M310.38,56.363a2.015,2.015,0,1,1,2.015-2.015,2.017,2.017,0,0,1-2.015,2.015m0-2.835a.821.821,0,1,0,.821.821.822.822,0,0,0-.821-.821" transform="translate(-247.012 -41.921)" fill="#fff"/>
      <path id="Path_64110" data-name="Path 64110" d="M21,138.515l-1.079.567.206-1.2-.873-.851,1.207-.175.54-1.093.54,1.093,1.207.175-.873.851.206,1.2Z" transform="translate(-15.42 -108.75)" fill="#fff"/>
      <path id="Path_64111" data-name="Path 64111" d="M383.5,142.015l-1.079.567.206-1.2-.873-.851,1.207-.175.54-1.093.54,1.093,1.207.175-.873.851.206,1.2Z" transform="translate(-305.796 -111.553)" fill="#fff"/>
      <path id="Path_64112" data-name="Path 64112" d="M68.526,112.561a7.165,7.165,0,0,1-6.685-4.6L61.1,106.04a4.764,4.764,0,0,0-4.2-3.053l-2.058-.106a7.149,7.149,0,0,1-6.536-9l.535-1.99a4.766,4.766,0,0,0-1.605-4.94l-1.6-1.3a7.149,7.149,0,0,1,0-11.121l1.6-1.3a4.766,4.766,0,0,0,1.605-4.94l-.535-1.99a7.149,7.149,0,0,1,6.537-9l2.058-.106a4.765,4.765,0,0,0,4.2-3.053l.737-1.924A7.15,7.15,0,0,1,72.417,48.8l1.727,1.124a4.766,4.766,0,0,0,5.194,0L81.066,48.8a7.15,7.15,0,0,1,10.577,3.436l.737,1.924a4.766,4.766,0,0,0,4.2,3.053l2.058.106a7.15,7.15,0,0,1,6.536,9l-.535,1.99a4.765,4.765,0,0,0,1.6,4.94l1.6,1.3a7.15,7.15,0,0,1,0,11.121l-1.6,1.3a4.766,4.766,0,0,0-1.6,4.94l.535,1.99a7.149,7.149,0,0,1-6.536,9l-2.058.106a4.765,4.765,0,0,0-4.2,3.053l-.737,1.924A7.15,7.15,0,0,1,81.066,111.4l-1.727-1.124a4.765,4.765,0,0,0-5.194,0L72.417,111.4a7.125,7.125,0,0,1-3.891,1.16m8.216-5.441a7.143,7.143,0,0,1,3.9,1.156l1.727,1.124a4.762,4.762,0,0,0,7.044-2.289l.737-1.924a7.156,7.156,0,0,1,6.309-4.584l2.058-.106A4.762,4.762,0,0,0,102.87,94.5l-.535-1.99a7.154,7.154,0,0,1,2.41-7.417l1.6-1.3a4.762,4.762,0,0,0,0-7.407l-1.6-1.3a7.154,7.154,0,0,1-2.41-7.417l.535-1.99A4.762,4.762,0,0,0,98.516,59.7L96.458,59.6a7.155,7.155,0,0,1-6.309-4.584l-.737-1.924A4.762,4.762,0,0,0,82.368,50.8l-1.727,1.124a7.155,7.155,0,0,1-7.8,0L71.115,50.8a4.762,4.762,0,0,0-7.044,2.289l-.737,1.924A7.154,7.154,0,0,1,57.025,59.6l-2.058.106a4.762,4.762,0,0,0-4.354,5.992l.535,1.99a7.155,7.155,0,0,1-2.41,7.417l-1.6,1.3a4.762,4.762,0,0,0,0,7.407l1.6,1.3a7.155,7.155,0,0,1,2.41,7.417l-.535,1.99a4.762,4.762,0,0,0,4.354,5.992l2.058.106a7.155,7.155,0,0,1,6.309,4.584l.737,1.924a4.763,4.763,0,0,0,7.045,2.289l1.727-1.124a7.142,7.142,0,0,1,3.9-1.156" transform="translate(-34.429 -38.159)" fill="#fff"/>
      <path id="Path_64113" data-name="Path 64113" d="M132.66,150.658a19.872,19.872,0,1,1,19.872-19.872,19.895,19.895,0,0,1-19.872,19.872m0-37.357a17.485,17.485,0,1,0,17.485,17.485A17.5,17.5,0,0,0,132.66,113.3" transform="translate(-90.347 -88.845)" fill="#fff"/>
      <path id="Path_64114" data-name="Path 64114" d="M77.716,357.3,70.508,346.63,57.7,347.969l12.56-26.935,2.164,1.009L61.646,345.156l10.039-1.05,5.649,8.365,11.847-25.406,2.164,1.009Z" transform="translate(-46.22 -257.16)" fill="#fff"/>
      <path id="Path_64115" data-name="Path 64115" d="M215.431,365.406,202.377,338.64l2.146-1.047,11.206,22.975,5.5-8.463,10.056.874-12.181-24.975,2.146-1.046,14.03,28.765-12.83-1.116Z" transform="translate(-162.111 -261.906)" fill="#fff"/>
      <path id="Path_64116" data-name="Path 64116" d="M80.06,43.778H76.18a.6.6,0,0,1,0-1.194h3.88a.6.6,0,1,1,0,1.194" transform="translate(-60.545 -34.111)" fill="#fff"/>
      <path id="Path_64117" data-name="Path 64117" d="M85.93,37.908a.6.6,0,0,1-.6-.6v-3.88a.6.6,0,1,1,1.194,0v3.88a.6.6,0,0,1-.6.6" transform="translate(-68.355 -26.301)" fill="#fff"/>
      <rect id="Rectangle_140362" data-name="Rectangle 140362" width="2.388" height="9.573" transform="translate(33.337 42.204) rotate(-45)" fill="#fff"/>
      <rect id="Rectangle_140363" data-name="Rectangle 140363" width="17.505" height="2.387" transform="translate(38.417 47.285) rotate(-45)" fill="#fff"/>
    </g>
  </g>
</svg>
