<svg xmlns="http://www.w3.org/2000/svg" width="99.392" height="94.506" viewBox="0 0 99.392 94.506">
  <g id="Group_45606" data-name="Group 45606" transform="translate(0.5 0.5)">
    <g id="Group_45607" data-name="Group 45607" transform="translate(0 0)">
      <path id="Path_63855" data-name="Path 63855" d="M29.835,27.209l3.774-1.134a34.89,34.89,0,0,0-13.26-18.4l-2.276,3.218A31.013,31.013,0,0,1,29.835,27.209" transform="translate(48.924 20.771)" fill="#fff" stroke="#fff" stroke-width="1"/>
      <path id="Path_63856" data-name="Path 63856" d="M4.385,25.97l3.792,1.094A30.5,30.5,0,0,1,19.554,10.953L17.234,7.761A34.446,34.446,0,0,0,4.385,25.97" transform="translate(11.87 21.009)" fill="#fff" stroke="#fff" stroke-width="1"/>
      <path id="Path_63857" data-name="Path 63857" d="M10.779,23.17,8.9,26.636a34.457,34.457,0,0,0,16.4,4.148A34.419,34.419,0,0,0,41.3,26.847l-1.839-3.492a31.075,31.075,0,0,1-28.678-.185" transform="translate(24.093 62.722)" fill="#fff" stroke="#fff" stroke-width="1"/>
      <path id="Path_63858" data-name="Path 63858" d="M10.588,31.7a8.962,8.962,0,1,0-8.96-8.964,8.962,8.962,0,0,0,8.96,8.964m0-13.979a5.016,5.016,0,1,1-5.016,5.016,5.022,5.022,0,0,1,5.016-5.016" transform="translate(4.407 37.287)" fill="#fff" stroke="#fff" stroke-width="1"/>
      <path id="Path_63859" data-name="Path 63859" d="M20.563,19.127H9.431A9.431,9.431,0,0,0,0,28.558V39.245H29.994V28.558a9.431,9.431,0,0,0-9.431-9.431M26.049,35.3H3.948V28.558a5.49,5.49,0,0,1,5.483-5.486H20.563a5.493,5.493,0,0,1,5.486,5.486Z" transform="translate(0 51.777)" fill="#fff" stroke="#fff" stroke-width="1"/>
      <path id="Path_63860" data-name="Path 63860" d="M20.079,22.734a8.96,8.96,0,1,0,8.96-8.96,8.962,8.962,0,0,0-8.96,8.96m8.96-5.016a5.016,5.016,0,1,1-5.016,5.016,5.022,5.022,0,0,1,5.016-5.016" transform="translate(54.354 37.287)" fill="#fff" stroke="#fff" stroke-width="1"/>
      <path id="Path_63861" data-name="Path 63861" d="M39.014,19.127H27.882a9.431,9.431,0,0,0-9.431,9.431V39.245H48.445V28.558a9.431,9.431,0,0,0-9.431-9.431M44.5,35.3H22.4V28.558a5.49,5.49,0,0,1,5.483-5.486H39.014A5.493,5.493,0,0,1,44.5,28.558Z" transform="translate(49.947 51.777)" fill="#fff" stroke="#fff" stroke-width="1"/>
      <path id="Path_63862" data-name="Path 63862" d="M19.814,17.923a8.962,8.962,0,1,0-8.96-8.964,8.962,8.962,0,0,0,8.96,8.964m0-13.979A5.016,5.016,0,1,1,14.8,8.96a5.022,5.022,0,0,1,5.016-5.016" transform="translate(29.382)" fill="#fff" stroke="#fff" stroke-width="1"/>
      <path id="Path_63863" data-name="Path 63863" d="M39.219,14.785a9.431,9.431,0,0,0-9.431-9.431H18.656a9.431,9.431,0,0,0-9.431,9.431V25.472H39.219Zm-3.944,6.743h-22.1V14.785A5.49,5.49,0,0,1,18.656,9.3H29.788a5.493,5.493,0,0,1,5.486,5.486Z" transform="translate(24.972 14.493)" fill="#fff" stroke="#fff" stroke-width="1"/>
    </g>
  </g>
</svg>
