<svg xmlns="http://www.w3.org/2000/svg" width="124.532" height="115.649" viewBox="0 0 124.532 115.649">
  <path id="Path_64165" data-name="Path 64165" d="M37.3,108.139a.567.567,0,0,0,.262.758,57.285,57.285,0,0,0,5.879,2.464.567.567,0,1,0,.379-1.069,56.149,56.149,0,0,1-5.762-2.415.567.567,0,0,0-.758.262m-10.581-6.845a.567.567,0,0,0,.088.8,57.775,57.775,0,0,0,5.188,3.7.567.567,0,0,0,.607-.958,56.586,56.586,0,0,1-5.086-3.629.567.567,0,0,0-.8.088m74.368-3.02a56.644,56.644,0,0,1-4.424,3.749.567.567,0,0,0,.688.9,57.955,57.955,0,0,0,4.512-3.825.567.567,0,0,0-.777-.826M17.9,92.291a.567.567,0,0,0-.089.8,57.954,57.954,0,0,0,4.248,4.75.567.567,0,0,0,.8-.8A56.7,56.7,0,0,1,18.7,92.38a.567.567,0,0,0-.8-.089m90.768-2.773a56.665,56.665,0,0,1-3.566,4.573.567.567,0,1,0,.857.742,57.746,57.746,0,0,0,3.638-4.664.567.567,0,0,0-.929-.651M11.279,81.572a.567.567,0,0,0-.263.758,57.277,57.277,0,0,0,3.1,5.569.567.567,0,1,0,.958-.606,56.2,56.2,0,0,1-3.037-5.458.567.567,0,0,0-.758-.262M114.3,79.4a56.234,56.234,0,0,1-2.553,5.206.567.567,0,1,0,.991.552,57.238,57.238,0,0,0,2.605-5.312A.567.567,0,1,0,114.3,79.4M49.1,71.14a.567.567,0,1,0,0,1.134h5.527a.567.567,0,1,0,0-1.134Zm68.627-2.808a56.109,56.109,0,0,1-1.424,5.622.567.567,0,1,0,1.083.335,57.323,57.323,0,0,0,1.453-5.736.567.567,0,0,0-1.113-.221M6.381,67.505a.567.567,0,1,0,0,1.134h17a.567.567,0,0,0,0-1.134Zm44.247-4.942a.567.567,0,0,0,0,.8l5.5,5.525a.567.567,0,1,0,.8-.8l-5.5-5.525a.567.567,0,0,0-.8,0M6.381,61.768a.567.567,0,1,0,0,1.134h9.805a.567.567,0,1,0,0-1.134ZM74,63.339a3.326,3.326,0,0,0-5.665,2.381v1.646a3.314,3.314,0,0,0-5.5,2.5v2.956a3.078,3.078,0,0,0-1.991-.731,3.109,3.109,0,0,0-3.1,3.111v1.74a3.1,3.1,0,0,0-5.066,2.4V95.994l-1.685-5.168A3.891,3.891,0,0,0,46.3,88.162l-.048.012a1.689,1.689,0,0,0-1.286,1.917.576.576,0,0,0,.006.079l.78,5.267.589,3.982a.575.575,0,0,0,.038.138l4.01,9.474-1.822,4.847a.567.567,0,1,0,1.062.4l.075-.2,1.826-4.859a.568.568,0,0,0-.008-.421l-4.07-9.617L46.1,90.045c0-.662.165-.7.432-.772l.048-.012a2.761,2.761,0,0,1,3.33,1.9l2.767,8.488V99.8a.567.567,0,0,0,.6.566l.076,0a.567.567,0,0,0,.508-.742l-.048-.149V79.35a1.966,1.966,0,1,1,3.932,0V91.972a.567.567,0,0,0,1.134,0V75.207a1.966,1.966,0,1,1,3.932,0V91.972a.567.567,0,0,0,.567.567h0a.567.567,0,0,0,.567-.566l.021-15.288a1.955,1.955,0,1,1,3.911,0V93.354a.567.567,0,0,0,1.134,0V83.309a1.966,1.966,0,1,1,3.932,0v16.963A16.343,16.343,0,0,1,68.85,111.1a.559.559,0,0,0-.083.123l-1.12,2.257a.06.06,0,0,1-.054.034.567.567,0,1,0,0,1.134,1.188,1.188,0,0,0,1.07-.664l1.087-2.191a17.457,17.457,0,0,0,2.406-3.556l5.058,6.2a.567.567,0,0,0,.879-.717l-5.1-6.251-.31-.353a17.494,17.494,0,0,0,1.393-6.845V83.309a3.1,3.1,0,0,0-5.066-2.4V76.684a3.1,3.1,0,0,0-3.089-3.1,3.067,3.067,0,0,0-1.952.7V69.871a2.184,2.184,0,1,1,4.367,0v1.836a.567.567,0,1,0,1.134,0V65.72a2.2,2.2,0,1,1,4.393,0V77.234a.567.567,0,1,0,1.134,0V64.26a1.966,1.966,0,1,1,3.932,0v16.2a.567.567,0,0,0,1.134,0V67.742a1.966,1.966,0,1,1,3.932,0V88.907l-.041.132a.567.567,0,0,0,.536.736h.067a.587.587,0,0,0,.4-.164.567.567,0,0,0,.168-.4V89.08l2.939-9.42a2.836,2.836,0,0,1,3.419-1.943l.049.012a.637.637,0,0,1,.459.753l-1.584,9.545-5.063,12.01a.566.566,0,0,0,.1.6l8.286,9.221.2.217a.567.567,0,1,0,.843-.758l-8.241-9.17,4.949-11.74a.545.545,0,0,0,.037-.127l.186-1.125,1.405-8.47a1.767,1.767,0,0,0-1.3-2.054l-.049-.012a3.965,3.965,0,0,0-4.783,2.71l-1.854,5.944V67.742a3.1,3.1,0,0,0-5.066-2.4V64.26A3.1,3.1,0,0,0,74,63.339M59.124,60.654v5.527a.567.567,0,0,0,1.134,0V60.654a.567.567,0,1,0-1.134,0M1.137,73.187l0-7.923a.576.576,0,0,0,0-.062V54.916H33.4v18.27A2.308,2.308,0,0,1,31.1,75.491H3.442a2.308,2.308,0,0,1-2.305-2.3m0-25.986A2.308,2.308,0,0,1,3.441,44.9H31.1A2.308,2.308,0,0,1,33.4,47.2v6.58H1.136Zm43.481-4.438-.009,0a.572.572,0,0,0-.186.123L39.108,48.2a.567.567,0,1,0,.8.8l4.346-4.346V59.1h-9.72V54.349s0,0,0-.007V47.2A3.443,3.443,0,0,0,31.1,43.761H3.441A3.444,3.444,0,0,0,0,47.2v7.147c0,.006,0,.012,0,.018V65.141A.562.562,0,0,0,0,65.2l0,7.985a3.443,3.443,0,0,0,3.439,3.438H31.1a3.443,3.443,0,0,0,3.439-3.439V60.236H44.823a.567.567,0,0,0,.567-.567V44.658L49.736,49a.567.567,0,0,0,.8-.8l-5.313-5.314a.573.573,0,0,0-.186-.123l-.009,0a.55.55,0,0,0-.413,0M99.584,48.9a6.89,6.89,0,1,1,6.89,6.89,6.9,6.9,0,0,1-6.89-6.89m-1.134,0a8.024,8.024,0,1,0,8.024-8.024A8.033,8.033,0,0,0,98.449,48.9M27.382,29.614a.567.567,0,1,0,0,1.134h17a.567.567,0,0,0,0-1.134ZM98.164,39.2a12.7,12.7,0,0,1,4.067-2.346.567.567,0,0,0,.372-.446l.618-3.9a16.387,16.387,0,0,1,6.5,0l.619,3.9a.567.567,0,0,0,.372.446,12.7,12.7,0,0,1,4.066,2.346.568.568,0,0,0,.572.1l3.685-1.413a16.291,16.291,0,0,1,3.252,5.632L119.228,46a.567.567,0,0,0-.2.544,12.333,12.333,0,0,1,0,4.7.567.567,0,0,0,.2.545l3.064,2.483a16.3,16.3,0,0,1-3.252,5.632L115.356,58.5a.568.568,0,0,0-.572.1,12.722,12.722,0,0,1-4.067,2.346.567.567,0,0,0-.371.446l-.619,3.9a16.38,16.38,0,0,1-6.5,0l-.618-3.9a.567.567,0,0,0-.371-.446,12.7,12.7,0,0,1-4.067-2.346.567.567,0,0,0-.572-.1l-3.685,1.413a16.325,16.325,0,0,1-3.252-5.632l3.064-2.483a.566.566,0,0,0,.2-.544,12.355,12.355,0,0,1,0-4.7.566.566,0,0,0-.2-.544L90.654,43.52a16.329,16.329,0,0,1,3.252-5.632L97.592,39.3a.568.568,0,0,0,.572-.1M60.457,42.8a.481.481,0,0,1,0-.779l18-13.077V35.5a.567.567,0,0,0,.567.567h22.134a13.792,13.792,0,0,0-3.468,2.058l-3.738-1.433a.568.568,0,0,0-.621.146,17.532,17.532,0,0,0-3.874,6.709.567.567,0,0,0,.184.611l3.108,2.519a13.655,13.655,0,0,0-.183,2.086H79.02a.567.567,0,0,0-.567.567v6.551Zm17.421-14.84L59.79,41.106a1.615,1.615,0,0,0,0,2.614L77.878,56.863a1.076,1.076,0,0,0,1.709-.871v-6.1H92.6c.031.4.078.813.146,1.226l-3.109,2.519a.567.567,0,0,0-.184.611,17.535,17.535,0,0,0,3.873,6.709.568.568,0,0,0,.621.147l3.738-1.433a13.823,13.823,0,0,0,3.848,2.219l.628,3.956a.567.567,0,0,0,.438.465c.227.05.454.091.681.132a17.775,17.775,0,0,0,3.192.3,17.971,17.971,0,0,0,3.874-.433.567.567,0,0,0,.438-.465l.628-3.956a13.841,13.841,0,0,0,3.848-2.219L119,61.107a.567.567,0,0,0,.621-.146,17.51,17.51,0,0,0,3.874-6.709.567.567,0,0,0-.184-.611L120.2,51.121a13.343,13.343,0,0,0,0-4.446l3.109-2.519a.567.567,0,0,0,.184-.611,17.51,17.51,0,0,0-3.874-6.709.568.568,0,0,0-.621-.146l-3.738,1.433a13.806,13.806,0,0,0-3.847-2.22l-.628-3.956a.567.567,0,0,0-.437-.465,17.6,17.6,0,0,0-7.748,0,.567.567,0,0,0-.437.465l-.473,2.984h-22.1v-6.1a1.076,1.076,0,0,0-1.709-.871m-50.5-4.086a.567.567,0,1,0,0,1.134h9.806a.567.567,0,1,0,0-1.134ZM22.513,35.772l0-7.92a.555.555,0,0,0,0-.065V17.5H54.779v18.27a2.308,2.308,0,0,1-2.305,2.305H24.818a2.308,2.308,0,0,1-2.305-2.3m0-25.986A2.308,2.308,0,0,1,24.818,7.48H52.472a2.308,2.308,0,0,1,2.305,2.305v6.58H22.512Zm2.305-3.439a3.443,3.443,0,0,0-3.439,3.439v7.148c0,.006,0,.012,0,.018v5.264H11.841a.567.567,0,0,0-.567.567v15.43L6.928,33.866a.567.567,0,1,0-.8.8l5.313,5.314a.567.567,0,0,0,.8,0l5.314-5.314a.567.567,0,1,0-.8-.8l-4.346,4.346V23.349H21.38v4.373a.539.539,0,0,0,0,.065l0,7.985a3.443,3.443,0,0,0,3.439,3.438H52.474a3.443,3.443,0,0,0,3.439-3.44V16.934s0-.007,0-.011V9.786a3.443,3.443,0,0,0-3.439-3.439ZM80.551,3.454a.567.567,0,0,0,.352.721c1.738.6,3.468,1.291,5.14,2.059A.567.567,0,1,0,86.516,5.2c-1.706-.784-3.471-1.491-5.244-2.1a.567.567,0,0,0-.721.352M68.214,11.079H95.981a.567.567,0,0,0,.567-.567V3.96l18,13.077a.481.481,0,0,1,0,.779l-18,13.077V24.342a.567.567,0,0,0-.567-.567H68.214ZM96,2.888a1.072,1.072,0,0,0-.588.959v6.1H67.647a.567.567,0,0,0-.567.567v13.83a.567.567,0,0,0,.567.567H95.414v6.1a1.076,1.076,0,0,0,1.709.871l18.087-13.144a1.615,1.615,0,0,0,0-2.614L97.124,2.976A1.073,1.073,0,0,0,96,2.888M53.4.734c-1.854.3-3.713.7-5.525,1.176a.567.567,0,1,0,.291,1.1c1.776-.471,3.6-.859,5.415-1.153A.567.567,0,0,0,53.4.734m16.254.26a.567.567,0,0,0,.487.637c1.825.244,3.658.582,5.446,1a.567.567,0,1,0,.261-1.1C74.021,1.1,72.152.755,70.29.506A.581.581,0,0,0,70.213.5a.566.566,0,0,0-.56.492M59.011.108a.567.567,0,0,0,.035,1.133h.035c1.831-.113,3.7-.139,5.538-.074A.567.567,0,0,0,64.66.033C63.983.009,63.3,0,62.62,0,61.414,0,60.2.034,59.011.108" transform="translate(0.5 0.503)" fill="#fff" stroke="#fff" stroke-width="1"/>
</svg>
