<svg id="Group_45832" data-name="Group 45832" xmlns="http://www.w3.org/2000/svg" xmlns:xlink="http://www.w3.org/1999/xlink" width="132.401" height="103.924" viewBox="0 0 132.401 103.924">
  <defs>
    <clipPath id="clip-path">
      <rect id="Rectangle_140376" data-name="Rectangle 140376" width="132.401" height="103.924" fill="#fff"/>
    </clipPath>
  </defs>
  <g id="Group_45831" data-name="Group 45831" clip-path="url(#clip-path)">
    <path id="Path_64166" data-name="Path 64166" d="M415.523,17.761l-1.8-6.8-1.7-6.446a.827.827,0,0,0-1.427-.328l-3.843,4.468A52.011,52.011,0,0,0,348.779,9a1.981,1.981,0,0,0-.176,3.139l.16.137a1.959,1.959,0,0,0,2.406.136,47.846,47.846,0,0,1,52.846-.581l-3.542,4.117a.827.827,0,0,0,.538,1.362l6.628.72,6.995.76a.827.827,0,0,0,.889-1.034M341.439,85.128l6.995.76,6.628.72a.827.827,0,0,1,.538,1.362l-3.542,4.118a47.847,47.847,0,0,0,52.847-.582,1.959,1.959,0,0,1,2.406.136l.159.137a1.982,1.982,0,0,1-.176,3.139,52.011,52.011,0,0,1-57.976.354l-3.841,4.466a.827.827,0,0,1-1.427-.328l-1.7-6.446-1.8-6.8a.827.827,0,0,1,.889-1.034" transform="translate(-303.791 0)" fill="#fff" fill-rule="evenodd"/>
    <path id="Path_64167" data-name="Path 64167" d="M39.472,139.15a27.57,27.57,0,0,1,6.778,2.81l3.664-1.719a2.693,2.693,0,0,1,3.053.535l4.534,4.533a2.693,2.693,0,0,1,.535,3.053l-1.719,3.664a27.555,27.555,0,0,1,2.811,6.778l3.8,1.374a2.688,2.688,0,0,1,1.781,2.537v6.411a2.688,2.688,0,0,1-1.781,2.537l-3.8,1.374a27.557,27.557,0,0,1-2.811,6.778l1.719,3.664a2.693,2.693,0,0,1-.535,3.053l-4.534,4.534a2.693,2.693,0,0,1-3.053.535l-3.664-1.719a27.56,27.56,0,0,1-6.778,2.811L38.1,196.5a2.688,2.688,0,0,1-2.537,1.781H29.15a2.688,2.688,0,0,1-2.537-1.781l-1.374-3.8a27.563,27.563,0,0,1-6.779-2.811L14.8,191.6a2.692,2.692,0,0,1-3.053-.535L7.21,186.533a2.692,2.692,0,0,1-.535-3.053l1.719-3.664a27.575,27.575,0,0,1-2.811-6.779l-3.8-1.374A2.688,2.688,0,0,1,0,169.127v-6.411a2.688,2.688,0,0,1,1.781-2.537l3.8-1.374a27.569,27.569,0,0,1,2.811-6.778l-1.719-3.664a2.693,2.693,0,0,1,.535-3.053l4.533-4.533a2.693,2.693,0,0,1,3.053-.535l3.664,1.719a27.573,27.573,0,0,1,6.778-2.81l1.374-3.8a2.688,2.688,0,0,1,2.537-1.781h6.411a2.688,2.688,0,0,1,2.537,1.781Zm-1.219,1.812A25.491,25.491,0,0,1,45.83,144.1a.626.626,0,0,0,.612.035l1.743-.818,2.6-1.22a.633.633,0,0,1,.728.127l2.267,2.267,2.267,2.267a.633.633,0,0,1,.127.728l-1.22,2.6-.817,1.743a.627.627,0,0,0,.036.612,25.483,25.483,0,0,1,3.141,7.577.627.627,0,0,0,.408.458l1.807.653,2.7.977a.634.634,0,0,1,.425.605v6.411a.634.634,0,0,1-.425.605l-2.7.977-1.807.653a.627.627,0,0,0-.408.458,25.484,25.484,0,0,1-3.141,7.577.627.627,0,0,0-.036.612l.817,1.742,1.22,2.6a.633.633,0,0,1-.127.728l-2.267,2.267-2.267,2.267a.634.634,0,0,1-.728.128l-2.6-1.22-1.743-.817a.627.627,0,0,0-.612.035,25.487,25.487,0,0,1-7.577,3.142.627.627,0,0,0-.458.408l-.653,1.806-.977,2.7a.634.634,0,0,1-.605.425H29.15a.634.634,0,0,1-.605-.425l-.977-2.7-.653-1.806a.627.627,0,0,0-.458-.408,25.487,25.487,0,0,1-7.577-3.142.628.628,0,0,0-.612-.035l-1.742.817-2.6,1.22a.634.634,0,0,1-.729-.127l-2.267-2.267-2.267-2.267a.634.634,0,0,1-.128-.728l1.22-2.6.818-1.742a.628.628,0,0,0-.035-.612A25.484,25.484,0,0,1,7.4,171.819a.628.628,0,0,0-.408-.458l-1.806-.653-2.7-.976a.634.634,0,0,1-.425-.605v-6.411a.633.633,0,0,1,.425-.605l2.7-.977,1.806-.653a.628.628,0,0,0,.408-.458,25.487,25.487,0,0,1,3.142-7.577.627.627,0,0,0,.036-.612l-.817-1.742-1.22-2.6a.633.633,0,0,1,.127-.728l2.267-2.267,2.267-2.267a.634.634,0,0,1,.729-.127l2.6,1.22,1.742.818a.627.627,0,0,0,.612-.035,25.487,25.487,0,0,1,7.577-3.141.628.628,0,0,0,.458-.408l.653-1.806.977-2.7a.634.634,0,0,1,.605-.425h6.411a.634.634,0,0,1,.605.425l.977,2.7.653,1.806a.628.628,0,0,0,.458.408m-5.9,6.094A18.865,18.865,0,1,1,13.49,165.921a18.865,18.865,0,0,1,18.865-18.865m0,2.054a16.811,16.811,0,1,0,16.811,16.811A16.811,16.811,0,0,0,32.355,149.11" transform="translate(0 -119.159)" fill="#fff" fill-rule="evenodd"/>
    <path id="Path_64168" data-name="Path 64168" d="M785.252,226.935h42.3a2.846,2.846,0,0,1,2.016.838l0,0a2.846,2.846,0,0,1,.839,2.015v40.975h0v5.908l-.028.032-.173.2h0l-3.968,4.546-5.644,6.467h0a.79.79,0,0,1-.614.279H785.252a2.845,2.845,0,0,1-2.015-.84l0,0a2.847,2.847,0,0,1-.838-2.016V229.789a2.86,2.86,0,0,1,2.854-2.854M815.5,245.99h7.293a.815.815,0,0,0,0-1.631H790.016a.815.815,0,1,0,0,1.631H815.5Zm-1.962,8.25h9.255a.815.815,0,0,0,0-1.631H790.016a.815.815,0,0,0,0,1.631h23.518Zm2.665,8.25h6.59a.815.815,0,0,0,0-1.631H790.016a.815.815,0,0,0,0,1.631H816.2Zm12.577-24.711v-7.989a1.218,1.218,0,0,0-.357-.863h0a1.219,1.219,0,0,0-.863-.36h-42.3a1.229,1.229,0,0,0-1.223,1.223V285.34a1.22,1.22,0,0,0,.36.863v0a1.218,1.218,0,0,0,.863.357h33.1a.817.817,0,0,0,.815-.815V278.4a2.86,2.86,0,0,1,2.854-2.854h5.943a.817.817,0,0,0,.815-.815V237.778Zm-38.76,31.33h32.773a.815.815,0,1,1,0,1.631H790.016a.815.815,0,1,1,0-1.631m0-33h32.773a.815.815,0,0,1,0,1.631H790.016a.815.815,0,0,1,0-1.631m30.778,42.3v4.63a.815.815,0,0,0,1.43.536l1.111-1.273,3.286-3.764a.815.815,0,0,0-.614-1.352h-3.989a1.229,1.229,0,0,0-1.223,1.223" transform="translate(-698.005 -202.457)" fill="#fff"/>
  </g>
</svg>
