<svg id="Group_45834" data-name="Group 45834" xmlns="http://www.w3.org/2000/svg" xmlns:xlink="http://www.w3.org/1999/xlink" width="124.348" height="102.745" viewBox="0 0 124.348 102.745">
  <defs>
    <clipPath id="clip-path">
      <rect id="Rectangle_140377" data-name="Rectangle 140377" width="124.348" height="102.745" fill="#fff" stroke="#fff" stroke-width="1"/>
    </clipPath>
  </defs>
  <g id="Group_45833" data-name="Group 45833" clip-path="url(#clip-path)">
    <path id="Path_64169" data-name="Path 64169" d="M358.978,343.108a26.22,26.22,0,1,1,15.965-47.023.917.917,0,1,1-1.118,1.453,24.39,24.39,0,1,0,9.506,18.057.917.917,0,1,1,1.831-.1,26.22,26.22,0,0,1-26.183,27.609" transform="translate(-296.87 -259.319)" fill="#fff" stroke="#fff" stroke-width="1"/>
    <path id="Path_64170" data-name="Path 64170" d="M755.008,387.712a.917.917,0,0,1-.875-.645,24.2,24.2,0,0,0-3.124-6.471c-.383-.561-.794-1.113-1.225-1.642a.917.917,0,1,1,1.422-1.157c.462.569.905,1.163,1.317,1.766a26.039,26.039,0,0,1,3.36,6.961.917.917,0,0,1-.876,1.189" transform="translate(-668.736 -336.749)" fill="#fff" stroke="#fff" stroke-width="1"/>
    <path id="Path_64171" data-name="Path 64171" d="M207.148,205.38h-9.959a3.867,3.867,0,0,1-3.863-3.862v-6.625a35.51,35.51,0,0,1-9.432-3.9l-4.681,4.681a3.863,3.863,0,0,1-5.462,0l-7.042-7.042a3.863,3.863,0,0,1,0-5.462l4.681-4.681a35.507,35.507,0,0,1-3.9-9.432h-6.625A3.867,3.867,0,0,1,157,165.191v-9.959a3.867,3.867,0,0,1,3.862-3.863h6.625a35.509,35.509,0,0,1,3.9-9.432l-4.681-4.681a3.867,3.867,0,0,1,0-5.462l7.042-7.042a3.867,3.867,0,0,1,5.462,0l4.681,4.681a35.505,35.505,0,0,1,9.432-3.9v-6.625a3.867,3.867,0,0,1,3.862-3.863h9.959a3.867,3.867,0,0,1,3.862,3.862v6.625a35.506,35.506,0,0,1,9.432,3.9l4.681-4.681a3.862,3.862,0,0,1,5.462,0l7.042,7.042a3.863,3.863,0,0,1,0,5.462l-4.681,4.681a35.505,35.505,0,0,1,3.9,9.432h6.625a3.867,3.867,0,0,1,3.863,3.863v9.959a3.867,3.867,0,0,1-3.862,3.862H236.85a35.507,35.507,0,0,1-3.9,9.432l4.681,4.681a3.863,3.863,0,0,1,0,5.462l-7.042,7.042a3.867,3.867,0,0,1-5.462,0l-4.681-4.681a35.5,35.5,0,0,1-9.432,3.9v6.625a3.867,3.867,0,0,1-3.862,3.862m-23.392-16.464a.914.914,0,0,1,.484.139,33.7,33.7,0,0,0,10.211,4.224.917.917,0,0,1,.709.893v7.346a2.031,2.031,0,0,0,2.029,2.029h9.959a2.031,2.031,0,0,0,2.029-2.029v-7.346a.917.917,0,0,1,.709-.893,33.7,33.7,0,0,0,10.211-4.224.917.917,0,0,1,1.133.13l5.19,5.19a2.031,2.031,0,0,0,2.869,0l7.042-7.042a2.031,2.031,0,0,0,0-2.869l-5.19-5.19a.917.917,0,0,1-.13-1.133,33.7,33.7,0,0,0,4.224-10.211.917.917,0,0,1,.893-.709h7.345a2.031,2.031,0,0,0,2.029-2.029v-9.959a2.031,2.031,0,0,0-2.029-2.029h-7.346a.917.917,0,0,1-.893-.709,33.7,33.7,0,0,0-4.224-10.211.917.917,0,0,1,.13-1.133l5.19-5.19a2.029,2.029,0,0,0,0-2.869l-7.042-7.042a2.029,2.029,0,0,0-2.869,0l-5.19,5.19a.917.917,0,0,1-1.133.13,33.694,33.694,0,0,0-10.211-4.224.917.917,0,0,1-.709-.893v-7.346a2.031,2.031,0,0,0-2.029-2.029h-9.959a2.031,2.031,0,0,0-2.029,2.029v7.345a.917.917,0,0,1-.709.893,33.7,33.7,0,0,0-10.211,4.224.917.917,0,0,1-1.133-.13l-5.19-5.19a2.032,2.032,0,0,0-2.869,0L168,133.09a2.029,2.029,0,0,0,0,2.869l5.19,5.19a.917.917,0,0,1,.13,1.133,33.7,33.7,0,0,0-4.224,10.211.917.917,0,0,1-.893.709h-7.345a2.031,2.031,0,0,0-2.029,2.029v9.959a2.031,2.031,0,0,0,2.029,2.029h7.346a.917.917,0,0,1,.893.709,33.7,33.7,0,0,0,4.224,10.211.917.917,0,0,1-.13,1.133l-5.19,5.19a2.029,2.029,0,0,0,0,2.869l7.042,7.042a2.029,2.029,0,0,0,2.869,0l5.191-5.19a.916.916,0,0,1,.649-.268" transform="translate(-140.067 -102.635)" fill="#fff" stroke="#fff" stroke-width="1"/>
    <path id="Path_64172" data-name="Path 64172" d="M412.731,604.468a3.16,3.16,0,1,1,3.16-3.16,3.164,3.164,0,0,1-3.16,3.16m0-4.487a1.327,1.327,0,1,0,1.327,1.327,1.328,1.328,0,0,0-1.327-1.327" transform="translate(-365.398 -533.637)" fill="#fff" stroke="#fff" stroke-width="1"/>
    <path id="Path_64173" data-name="Path 64173" d="M504.019,508.425a3.16,3.16,0,1,1,3.16-3.16,3.164,3.164,0,0,1-3.16,3.16m0-4.487a1.327,1.327,0,1,0,1.327,1.327,1.328,1.328,0,0,0-1.327-1.327" transform="translate(-446.841 -447.952)" fill="#fff" stroke="#fff" stroke-width="1"/>
    <path id="Path_64174" data-name="Path 64174" d="M595.307,555.644a3.16,3.16,0,1,1,3.16-3.16,3.164,3.164,0,0,1-3.16,3.16m0-4.487a1.327,1.327,0,1,0,1.327,1.327,1.328,1.328,0,0,0-1.327-1.327" transform="translate(-528.283 -490.079)" fill="#fff" stroke="#fff" stroke-width="1"/>
    <path id="Path_64175" data-name="Path 64175" d="M686.6,434.115a3.16,3.16,0,1,1,3.16-3.16,3.164,3.164,0,0,1-3.16,3.16m0-4.487a1.327,1.327,0,1,0,1.327,1.327,1.328,1.328,0,0,0-1.327-1.327" transform="translate(-609.726 -381.657)" fill="#fff" stroke="#fff" stroke-width="1"/>
    <path id="Path_64176" data-name="Path 64176" d="M445.613,546.917a.917.917,0,0,1-.664-1.548l6.756-7.107a.917.917,0,1,1,1.329,1.263l-6.756,7.107a.914.914,0,0,1-.665.285" transform="translate(-396.735 -479.955)" fill="#fff" stroke="#fff" stroke-width="1"/>
    <path id="Path_64177" data-name="Path 64177" d="M546.911,537.327a.914.914,0,0,1-.42-.1l-5.86-3.031a.917.917,0,1,1,.842-1.628l5.86,3.031a.917.917,0,0,1-.422,1.731" transform="translate(-481.881 -475.035)" fill="#fff" stroke="#fff" stroke-width="1"/>
    <path id="Path_64178" data-name="Path 64178" d="M626.355,476.574a.917.917,0,0,1-.732-1.467l7.151-9.521a.917.917,0,1,1,1.466,1.1l-7.151,9.521a.916.916,0,0,1-.734.366" transform="translate(-557.984 -415.044)" fill="#fff" stroke="#fff" stroke-width="1"/>
    <path id="Path_64179" data-name="Path 64179" d="M925.743,891.443a.917.917,0,0,1-.917-.917v-5.566a.917.917,0,0,1,1.833,0v5.566a.917.917,0,0,1-.917.917" transform="translate(-825.082 -788.699)" fill="#fff" stroke="#fff" stroke-width="1"/>
    <path id="Path_64180" data-name="Path 64180" d="M978.526,809.753a.917.917,0,0,1-.917-.917V793.395a.917.917,0,0,1,1.833,0v15.441a.917.917,0,0,1-.917.917" transform="translate(-872.173 -707.008)" fill="#fff" stroke="#fff" stroke-width="1"/>
    <path id="Path_64181" data-name="Path 64181" d="M1031.308,852.3a.917.917,0,0,1-.917-.917v-10.3a.917.917,0,1,1,1.833,0v10.3a.917.917,0,0,1-.917.917" transform="translate(-919.262 -749.559)" fill="#fff" stroke="#fff" stroke-width="1"/>
    <path id="Path_64182" data-name="Path 64182" d="M1084.09,814.174a.917.917,0,0,1-.917-.917V798.351a.917.917,0,0,1,1.833,0v14.907a.917.917,0,0,1-.917.917" transform="translate(-966.351 -711.43)" fill="#fff" stroke="#fff" stroke-width="1"/>
    <path id="Path_64183" data-name="Path 64183" d="M1136.874,732.641a.917.917,0,0,1-.917-.917V706.961a.917.917,0,1,1,1.833,0v24.763a.917.917,0,0,1-.917.917" transform="translate(-1013.443 -629.896)" fill="#fff" stroke="#fff" stroke-width="1"/>
    <path id="Path_64184" data-name="Path 64184" d="M938.532,66.344a.917.917,0,0,1-.917-.917V16.349a.917.917,0,0,1,.917-.917H942.9L933.6,2.489l-9.292,12.944h4.363a.917.917,0,0,1,.917.917V42.115a.917.917,0,0,1-1.833,0V17.266h-5.233a.917.917,0,0,1-.745-1.451L932.859.382a.917.917,0,0,1,1.49,0l11.078,15.433a.917.917,0,0,1-.745,1.451h-5.233V65.428a.917.917,0,0,1-.917.917" transform="translate(-822.212)" fill="#fff" stroke="#fff" stroke-width="1"/>
    <path id="Path_64185" data-name="Path 64185" d="M809.148,20.7a.917.917,0,0,1-.917-.917V14.021h-4.213a.917.917,0,0,1-.745-1.451L812.022.382a.917.917,0,0,1,1.49,0l5.514,7.681a.917.917,0,1,1-1.49,1.069l-4.769-6.644-6.962,9.7h3.343a.917.917,0,0,1,.917.917v6.684a.917.917,0,0,1-.917.917" transform="translate(-716.486)" fill="#fff" stroke="#fff" stroke-width="1"/>
    <path id="Path_64186" data-name="Path 64186" d="M36.568,937.485H.917a.917.917,0,0,1,0-1.833H36.568a.917.917,0,0,1,0,1.833" transform="translate(0 -834.741)" fill="#fff" stroke="#fff" stroke-width="1"/>
    <path id="Path_64187" data-name="Path 64187" d="M100.756,853.106h-14.1a.917.917,0,1,1,0-1.833h14.1a.917.917,0,1,1,0,1.833" transform="translate(-76.492 -759.462)" fill="#fff" stroke="#fff" stroke-width="1"/>
    <path id="Path_64188" data-name="Path 64188" d="M6.028,853.106H.917a.917.917,0,1,1,0-1.833H6.028a.917.917,0,1,1,0,1.833" transform="translate(0 -759.462)" fill="#fff" stroke="#fff" stroke-width="1"/>
    <path id="Path_64189" data-name="Path 64189" d="M21.39,84.543H.917A.917.917,0,0,1,0,83.626V.916A.917.917,0,0,1,.917,0H62.1a.917.917,0,0,1,.917.917V8.531a.917.917,0,1,1-1.833,0v-6.7H1.833V82.71H21.39a.917.917,0,0,1,0,1.833" transform="translate(0 0.001)" fill="#fff" stroke="#fff" stroke-width="1"/>
    <path id="Path_64190" data-name="Path 64190" d="M271.4,86.311H256.85a.917.917,0,0,1,0-1.833H271.4a.917.917,0,0,1,0,1.833" transform="translate(-228.33 -75.367)" fill="#fff" stroke="#fff" stroke-width="1"/>
    <path id="Path_64191" data-name="Path 64191" d="M182.05,86.311H177.4a.917.917,0,0,1,0-1.833h4.645a.917.917,0,0,1,0,1.833" transform="translate(-157.454 -75.367)" fill="#fff" stroke="#fff" stroke-width="1"/>
    <path id="Path_64192" data-name="Path 64192" d="M59.871,197.939a.916.916,0,0,1-.648-.269L57.2,195.645a.917.917,0,0,1,1.3-1.3l1.377,1.377,2.986-2.986a.917.917,0,0,1,1.3,1.3l-3.634,3.634a.916.916,0,0,1-.648.269" transform="translate(-50.789 -171.713)" fill="#fff" stroke="#fff" stroke-width="1"/>
    <path id="Path_64193" data-name="Path 64193" d="M59.871,356.635a.914.914,0,0,1-.648-.269L57.2,354.341a.917.917,0,0,1,1.3-1.3l1.377,1.377,2.986-2.986a.917.917,0,0,1,1.3,1.3l-3.634,3.634a.914.914,0,0,1-.648.269" transform="translate(-50.789 -313.294)" fill="#fff" stroke="#fff" stroke-width="1"/>
    <path id="Path_64194" data-name="Path 64194" d="M59.872,515.331a.914.914,0,0,1-.648-.268L57.2,513.037a.917.917,0,1,1,1.3-1.3l1.377,1.377,2.986-2.986a.917.917,0,1,1,1.3,1.3l-3.634,3.634a.914.914,0,0,1-.648.268" transform="translate(-50.789 -454.874)" fill="#fff" stroke="#fff" stroke-width="1"/>
    <path id="Path_64195" data-name="Path 64195" d="M59.872,674.026a.914.914,0,0,1-.648-.268L57.2,671.732a.917.917,0,1,1,1.3-1.3l1.377,1.377,2.986-2.986a.917.917,0,0,1,1.3,1.3l-3.634,3.634a.914.914,0,0,1-.648.268" transform="translate(-50.789 -596.454)" fill="#fff" stroke="#fff" stroke-width="1"/>
    <path id="Path_64196" data-name="Path 64196" d="M163.06,211.152h-5.208a.917.917,0,0,1,0-1.833h5.208a.917.917,0,1,1,0,1.833" transform="translate(-140.009 -186.744)" fill="#fff" stroke="#fff" stroke-width="1"/>
    <path id="Path_64197" data-name="Path 64197" d="M165,369.849h-7.149a.917.917,0,0,1,0-1.833H165a.917.917,0,1,1,0,1.833" transform="translate(-140.009 -328.324)" fill="#fff" stroke="#fff" stroke-width="1"/>
    <path id="Path_64198" data-name="Path 64198" d="M163.06,687.24h-5.208a.917.917,0,1,1,0-1.833h5.208a.917.917,0,1,1,0,1.833" transform="translate(-140.009 -611.485)" fill="#fff" stroke="#fff" stroke-width="1"/>
  </g>
</svg>
