<svg width="452" height="573" viewBox="0 0 452 573" fill="none" xmlns="http://www.w3.org/2000/svg">
<path d="M286.5 572.5C444.453 572.5 572.5 444.453 572.5 286.5C572.5 128.547 444.453 0.5 286.5 0.5C128.547 0.5 0.5 128.547 0.5 286.5C0.5 444.453 128.547 572.5 286.5 572.5Z" stroke="#DADADA"/>
<g clip-path="url(#clip0_2045_12436)">
<g filter="url(#filter0_d_2045_12436)">
<path d="M141.586 51.5C149.87 51.5 156.586 44.7843 156.586 36.5C156.586 28.2157 149.87 21.5 141.586 21.5C133.302 21.5 126.586 28.2157 126.586 36.5C126.586 44.7843 133.302 51.5 141.586 51.5Z" fill="url(#paint0_linear_2045_12436)"/>
</g>
</g>
<defs>
<filter id="filter0_d_2045_12436" x="106.586" y="4.5" width="70" height="70" filterUnits="userSpaceOnUse" color-interpolation-filters="sRGB">
<feFlood flood-opacity="0" result="BackgroundImageFix"/>
<feColorMatrix in="SourceAlpha" type="matrix" values="0 0 0 0 0 0 0 0 0 0 0 0 0 0 0 0 0 0 127 0" result="hardAlpha"/>
<feOffset dy="3"/>
<feGaussianBlur stdDeviation="10"/>
<feColorMatrix type="matrix" values="0 0 0 0 0 0 0 0 0 0 0 0 0 0 0 0 0 0 0.239 0"/>
<feBlend mode="normal" in2="BackgroundImageFix" result="effect1_dropShadow_2045_12436"/>
<feBlend mode="normal" in="SourceGraphic" in2="effect1_dropShadow_2045_12436" result="shape"/>
</filter>
<linearGradient id="paint0_linear_2045_12436" x1="141.586" y1="21.5" x2="141.586" y2="51.5" gradientUnits="userSpaceOnUse">
<stop stop-color="#FFA000"/>
<stop offset="1" stop-color="#FF6000"/>
</linearGradient>
<clipPath id="clip0_2045_12436">
<rect width="73" height="73" fill="white" transform="translate(105.086)"/>
</clipPath>
</defs>
</svg>
